<svg width="18" height="14" viewBox="0 0 18 14" fill="none" xmlns="http://www.w3.org/2000/svg">
<path id="Vector" d="M3.83069 0.474321C3.75661 0.393594 3.66669 0.327884 3.56615 0.280999C3.4656 0.234114 3.35643 0.206987 3.24497 0.20119C3.1335 0.195393 3.02195 0.211041 2.91678 0.247227C2.81161 0.283413 2.71492 0.339418 2.63231 0.411996C2.5497 0.484573 2.48281 0.57228 2.43552 0.670032C2.38823 0.767785 2.36148 0.873639 2.35682 0.981459C2.35216 1.08928 2.36968 1.19692 2.40837 1.29815C2.44706 1.39937 2.50615 1.49217 2.58221 1.57115L3.70697 2.7706C1.28523 4.32954 0.234285 6.5667 0.183671 6.67203C0.136047 6.77641 0.11145 6.88924 0.11145 7.00333C0.11145 7.11741 0.136047 7.23024 0.183671 7.33462C0.209681 7.39034 0.825484 8.71143 2.18644 10.0264C4.00573 11.7831 6.29953 12.7114 8.83023 12.7114C10.0602 12.718 11.2791 12.4869 12.4154 12.0318L13.8277 13.5337C13.9789 13.6908 14.1881 13.7839 14.4099 13.7928C14.6317 13.8018 14.8482 13.7259 15.0124 13.5815C15.1767 13.4372 15.2755 13.2361 15.2874 13.0218C15.2994 12.8076 15.2234 12.5974 15.0761 12.4369L3.83069 0.474321ZM8.83023 11.0804C6.75013 11.0804 4.93084 10.3512 3.42367 8.91395C2.83082 8.34647 2.32069 7.70358 1.90736 7.00299C2.27782 6.3703 3.22824 4.97106 4.85984 3.99315L11.1929 10.7284C10.4292 10.9642 9.63196 11.0829 8.83023 11.0804ZM17.4768 7.33462C17.4515 7.38966 16.8441 8.69376 15.5085 9.99583C15.432 10.0779 15.339 10.1441 15.2353 10.1904C15.1316 10.2367 15.0192 10.2621 14.9049 10.2652C14.7907 10.2682 14.677 10.2488 14.5708 10.2081C14.4646 10.1674 14.368 10.1062 14.287 10.0283C14.206 9.95045 14.1421 9.85747 14.0994 9.75502C14.0566 9.65258 14.0359 9.54281 14.0384 9.43237C14.0408 9.32193 14.0665 9.21313 14.1138 9.11256C14.161 9.012 14.229 8.92177 14.3134 8.84735C14.8745 8.29589 15.3585 7.67584 15.7531 7.00299C15.34 6.30224 14.8299 5.65931 14.2368 5.09202C12.7289 3.65473 10.9103 2.92554 8.83023 2.92554C8.59473 2.92554 8.35924 2.93506 8.12726 2.95408C8.01546 2.96566 7.90241 2.95552 7.79473 2.92425C7.68705 2.89299 7.58692 2.84123 7.50023 2.77202C7.41354 2.70281 7.34204 2.61754 7.28993 2.52124C7.23781 2.42493 7.20614 2.31952 7.19677 2.21121C7.18739 2.1029 7.20051 1.99387 7.23535 1.89053C7.27019 1.7872 7.32605 1.69163 7.39964 1.60946C7.47323 1.52729 7.56307 1.46017 7.66388 1.41205C7.76469 1.36392 7.87443 1.33576 7.98666 1.32922C8.26293 1.30612 8.54904 1.29457 8.83023 1.29457C11.3609 1.29457 13.6547 2.22354 15.4726 3.98024C16.8329 5.29522 17.4487 6.61699 17.4747 6.67203C17.5226 6.77627 17.5476 6.88903 17.548 7.00311C17.5483 7.11719 17.5241 7.2301 17.4768 7.33462Z" fill="#A4A4A4"/>
</svg>
